<svg width="560" height="1040" viewBox="0 0 560 1040" fill="none" xmlns="http://www.w3.org/2000/svg">
  <defs>
    <linearGradient id="g" x1="70" y1="40" x2="500" y2="980" gradientUnits="userSpaceOnUse"><stop stop-color="#163E34"/><stop offset="1" stop-color="#07110F"/></linearGradient>
    <linearGradient id="c" x1="80" y1="340" x2="470" y2="550" gradientUnits="userSpaceOnUse"><stop stop-color="#D7BD7A"/><stop offset="1" stop-color="#8C6C2E"/></linearGradient>
  </defs>
  <rect x="12" y="12" width="536" height="1016" rx="76" fill="#050B0A" stroke="#C8A55A" stroke-width="8"/>
  <rect x="36" y="36" width="488" height="968" rx="56" fill="url(#g)"/>
  <rect x="194" y="58" width="172" height="25" rx="12.5" fill="#050B0A"/>
  <circle cx="84" cy="143" r="30" fill="#C8A55A"/><path d="M72 143H96M84 131V155" stroke="#07110F" stroke-width="5"/>
  <text x="66" y="215" fill="#99B6AA" font-family="Arial" font-size="20">TOTAL BALANCE</text>
  <text x="66" y="266" fill="#F3EFE3" font-family="Arial" font-weight="700" font-size="44">$84,290.80</text>
  <rect x="66" y="325" width="428" height="230" rx="30" fill="url(#c)"/>
  <circle cx="110" cy="382" r="21" fill="#07110F" fill-opacity=".78"/><circle cx="136" cy="382" r="21" fill="#07110F" fill-opacity=".52"/>
  <text x="95" y="475" fill="#07110F" font-family="Arial" font-size="25" letter-spacing="5">••••  4680</text>
  <text x="95" y="518" fill="#07110F" font-family="Arial" font-size="18">CORE SIGNATURE</text>
  <text x="66" y="626" fill="#F3EFE3" font-family="Arial" font-weight="700" font-size="25">Quick actions</text>
  <g fill="#183D34"><rect x="66" y="658" width="126" height="115" rx="25"/><rect x="217" y="658" width="126" height="115" rx="25"/><rect x="368" y="658" width="126" height="115" rx="25"/></g>
  <g fill="#7CE2BD"><circle cx="129" cy="705" r="18"/><circle cx="280" cy="705" r="18"/><circle cx="431" cy="705" r="18"/></g>
  <g fill="#F3EFE3" font-family="Arial" font-size="15" text-anchor="middle"><text x="129" y="750">Transfer</text><text x="280" y="750">Pay bill</text><text x="431" y="750">Cards</text></g>
  <text x="66" y="842" fill="#F3EFE3" font-family="Arial" font-weight="700" font-size="25">Latest activity</text>
  <circle cx="96" cy="902" r="28" fill="#C8A55A"/><rect x="140" y="878" width="190" height="15" rx="7" fill="#F3EFE3" fill-opacity=".9"/><rect x="140" y="910" width="130" height="12" rx="6" fill="#99B6AA"/>
  <text x="463" y="909" fill="#F3EFE3" font-family="Arial" font-size="18" text-anchor="end">-$42.80</text>
</svg>

